<svg xmlns="http://www.w3.org/2000/svg" viewBox="0 0 36 36" width="36" height="36" overflow="visible">
  <path d="M6.8 7.3 Q16.8 17.4 29.1 29.5 M29.1 6.9 Q16.8 17.7 6.6 29.3" stroke="#292727" stroke-width="2" fill="none" stroke-linecap="round" opacity="0.88"></path>
  <path d="M3.5 4.2 Q17.5 3.1 32.3 3.7 M32.0 4.2 Q31.3 17.3 32.5 31.3 M31.5 31.6 Q17.8 31.6 4.5 31.5 M3.5 31.8 Q3.4 18.3 4.6 3.4 M4.3 3.7 Q17.4 4.4 31.8 4.5 M31.9 4.0 Q32.0 17.4 31.4 32.0 M32.1 31.8 Q16.9 32.5 3.4 31.6 M3.4 31.5 Q3.5 17.6 3.5 4.4" stroke="#292727" stroke-width="1.5" fill="none" stroke-linecap="round" stroke-linejoin="round" opacity="0.88"></path>
</svg>