<svg xmlns="http://www.w3.org/2000/svg" viewBox="0 0 36 36" width="36" height="36" overflow="visible">
  <path d="M5.2 9.2 Q6.8 7.1 8.9 5.3 M5.0 11.3 Q8.3 8.9 11.3 5.3 M5.0 14.1 Q9.5 10.0 14.5 5.7 M6.0 18.1 Q11.1 11.2 17.8 6.1 M5.2 21.0 Q12.8 13.5 20.0 6.1 M4.9 23.4 Q14.1 14.6 22.9 5.8 M5.3 27.0 Q15.9 15.9 26.7 5.7 M4.9 28.9 Q17.6 17.5 29.2 4.9 M8.1 30.5 Q18.8 19.4 30.4 8.1 M11.0 30.1 Q20.8 20.8 31.1 9.9 M14.1 31.0 Q21.7 22.1 30.5 13.1 M16.8 30.3 Q24.0 24.1 30.3 17.1 M19.0 30.9 Q25.2 25.0 30.7 19.1 M21.9 29.9 Q26.5 26.3 30.2 22.9 M25.5 30.4 Q28.3 28.6 30.7 24.8 M28.8 30.8 Q29.0 29.4 29.9 27.8" stroke="#292727" stroke-width="1.1" fill="none" stroke-linecap="round" opacity="0.82"></path>
  <path d="M3.5 3.4 Q17.5 4.3 31.4 3.7 M31.8 4.3 Q31.5 18.1 32.1 31.4 M31.9 32.4 Q18.6 31.1 3.8 32.5 M3.4 31.8 Q3.8 17.9 3.6 4.6 M3.5 4.7 Q17.7 4.2 31.9 4.7 M31.3 4.4 Q31.1 18.6 32.3 32.4 M31.6 32.7 Q17.6 32.2 3.8 31.3 M3.9 31.5 Q3.6 17.8 4.4 4.5" stroke="#292727" stroke-width="1.5" fill="none" stroke-linecap="round" stroke-linejoin="round" opacity="0.88"></path>
</svg>