<svg xmlns="http://www.w3.org/2000/svg" viewBox="0 0 36 36" width="36" height="36" overflow="visible">
  <path d="M7.4 17.6 Q16.4 18.3 26.0 18.6 M21.6 13.1 Q24.2 16.0 28.3 17.7 M20.5 23.0 Q23.9 20.5 28.0 17.3" stroke="#292727" stroke-width="2" fill="none" stroke-linecap="round" stroke-linejoin="round" opacity="0.88"></path>
  <path d="M3.9 3.7 Q17.5 4.5 32.3 4.3 M32.2 4.2 Q33.0 18.4 31.3 31.8 M31.6 32.2 Q19.0 31.9 4.1 31.8 M4.1 32.0 Q4.2 18.2 4.7 3.8 M4.1 3.4 Q17.7 4.3 32.6 4.6 M32.4 3.9 Q31.0 17.0 31.6 31.5 M32.4 32.7 Q17.8 32.1 3.6 31.6 M4.6 31.4 Q3.6 17.6 3.7 3.5" stroke="#292727" stroke-width="1.5" fill="none" stroke-linecap="round" stroke-linejoin="round" opacity="0.88"></path>
</svg>