<svg xmlns="http://www.w3.org/2000/svg" viewBox="0 0 36 36" width="36" height="36" overflow="visible">
  <defs><clipPath id="c_started"><path d="M4 4 L4 32 L32 32 Z"></path></clipPath></defs><path d="M5.6 9.1 Q6.6 7.2 7.9 5.4 M5.7 11.5 Q8.2 8.0 10.9 5.3 M5.0 13.8 Q9.5 10.2 15.1 5.4 M4.8 17.6 Q12.1 11.0 17.2 5.8 M5.6 21.1 Q12.9 13.1 20.7 6.1 M5.4 23.2 Q14.0 15.1 23.2 6.0 M5.7 26.6 Q16.6 15.7 26.0 5.0 M4.9 30.1 Q17.5 18.0 29.6 6.0 M6.9 31.1 Q19.0 19.2 30.0 7.7 M10.8 30.7 Q19.9 20.5 30.4 10.7 M13.3 29.9 Q21.6 21.7 30.5 14.0 M16.7 30.8 Q24.0 23.6 29.8 17.0 M19.9 30.4 Q24.9 25.0 30.5 19.6 M22.9 31.1 Q26.0 26.9 31.0 22.6 M25.5 30.3 Q28.2 28.5 30.4 25.6 M28.8 30.6 Q30.0 29.8 29.9 28.4" stroke="#292727" stroke-width="1.1" fill="none" stroke-linecap="round" opacity="0.82" clip-path="url(#c_started)"></path>
  <path d="M4.1 4.0 Q17.4 3.7 32.3 4.4 M31.6 4.6 Q31.5 18.5 31.6 32.0 M31.7 31.6 Q17.1 32.6 3.6 32.2 M3.9 32.0 Q3.5 17.0 4.4 4.6 M4.4 3.7 Q18.5 3.8 31.4 3.8 M32.0 3.8 Q32.8 18.2 31.5 32.5 M32.2 32.6 Q17.6 31.1 3.4 32.1 M4.7 31.5 Q3.9 18.3 3.6 4.0" stroke="#292727" stroke-width="1.5" fill="none" stroke-linecap="round" stroke-linejoin="round" opacity="0.88"></path>
</svg>